%TF.GenerationSoftware,KiCad,Pcbnew,9.0.6*%
%TF.CreationDate,2025-12-23T16:48:34+01:00*%
%TF.ProjectId,PiRTOII2_cart,50695254-4f49-4493-925f-636172742e6b,1git*%
%TF.SameCoordinates,Original*%
%TF.FileFunction,Legend,Top*%
%TF.FilePolarity,Positive*%
%FSLAX46Y46*%
G04 Gerber Fmt 4.6, Leading zero omitted, Abs format (unit mm)*
G04 Created by KiCad (PCBNEW 9.0.6) date 2025-12-23 16:48:34*
%MOMM*%
%LPD*%
G01*
G04 APERTURE LIST*
G04 Aperture macros list*
%AMRoundRect*
0 Rectangle with rounded corners*
0 $1 Rounding radius*
0 $2 $3 $4 $5 $6 $7 $8 $9 X,Y pos of 4 corners*
0 Add a 4 corners polygon primitive as box body*
4,1,4,$2,$3,$4,$5,$6,$7,$8,$9,$2,$3,0*
0 Add four circle primitives for the rounded corners*
1,1,$1+$1,$2,$3*
1,1,$1+$1,$4,$5*
1,1,$1+$1,$6,$7*
1,1,$1+$1,$8,$9*
0 Add four rect primitives between the rounded corners*
20,1,$1+$1,$2,$3,$4,$5,0*
20,1,$1+$1,$4,$5,$6,$7,0*
20,1,$1+$1,$6,$7,$8,$9,0*
20,1,$1+$1,$8,$9,$2,$3,0*%
G04 Aperture macros list end*
%ADD10C,0.300000*%
%ADD11C,0.150000*%
%ADD12C,0.120000*%
%ADD13RoundRect,0.249999X-0.850001X0.850001X-0.850001X-0.850001X0.850001X-0.850001X0.850001X0.850001X0*%
%ADD14C,2.200000*%
%ADD15O,1.700000X1.700000*%
%ADD16R,1.700000X3.500000*%
%ADD17R,1.700000X1.700000*%
%ADD18R,1.100000X1.800000*%
%ADD19RoundRect,0.275000X-0.275000X-0.625000X0.275000X-0.625000X0.275000X0.625000X-0.275000X0.625000X0*%
%ADD20C,0.900000*%
%ADD21R,1.600000X0.700000*%
%ADD22R,2.200000X1.200000*%
%ADD23R,1.400000X1.600000*%
%ADD24R,1.400000X1.200000*%
%ADD25C,2.100000*%
%ADD26C,1.750000*%
%ADD27R,1.270000X8.840000*%
G04 APERTURE END LIST*
D10*
G36*
X105812793Y-128933581D02*
G01*
X106194917Y-128986216D01*
X106487149Y-129064242D01*
X106707076Y-129162301D01*
X106862930Y-129270990D01*
X106983284Y-129399414D01*
X107071058Y-129550200D01*
X107126212Y-129727711D01*
X107145736Y-129937711D01*
X107118545Y-130222260D01*
X107042740Y-130455255D01*
X106923497Y-130646573D01*
X106761043Y-130803503D01*
X106550659Y-130930083D01*
X106283178Y-131026667D01*
X105945776Y-131089888D01*
X105522742Y-131112970D01*
X105200341Y-131096777D01*
X105200341Y-132342001D01*
X104489839Y-132342001D01*
X104489839Y-129463745D01*
X105200341Y-129463745D01*
X105200341Y-130558661D01*
X105484396Y-130574855D01*
X105806938Y-130556044D01*
X106036096Y-130507052D01*
X106194898Y-130435966D01*
X106289410Y-130359487D01*
X106358689Y-130262161D01*
X106403031Y-130139316D01*
X106419113Y-129984214D01*
X106394250Y-129829845D01*
X106323616Y-129706490D01*
X106205498Y-129606403D01*
X106028578Y-129527330D01*
X105773786Y-129472942D01*
X105416252Y-129452119D01*
X105200341Y-129463745D01*
X104489839Y-129463745D01*
X104489839Y-128939539D01*
X105320509Y-128914003D01*
X105812793Y-128933581D01*
G37*
G36*
X108270963Y-128890751D02*
G01*
X108422842Y-128915443D01*
X108550865Y-128989572D01*
X108638073Y-129098592D01*
X108667124Y-129227904D01*
X108638073Y-129357216D01*
X108550865Y-129466236D01*
X108422842Y-129540366D01*
X108270963Y-129565057D01*
X108119041Y-129540372D01*
X107990816Y-129466236D01*
X107903799Y-129357233D01*
X107874801Y-129227904D01*
X107903799Y-129098576D01*
X107990816Y-128989572D01*
X108119041Y-128915436D01*
X108270963Y-128890751D01*
G37*
G36*
X107918520Y-132342001D02*
G01*
X107918520Y-130332370D01*
X107544096Y-130332370D01*
X107544096Y-129857367D01*
X108609727Y-129857367D01*
X108609727Y-132342001D01*
X107918520Y-132342001D01*
G37*
G36*
X110960228Y-128921310D02*
G01*
X111281478Y-128977442D01*
X111533600Y-129062521D01*
X111729464Y-129172818D01*
X111878681Y-129307814D01*
X111986837Y-129470265D01*
X112054921Y-129665899D01*
X112079197Y-129902833D01*
X112055756Y-130098084D01*
X111986194Y-130280058D01*
X111868660Y-130452574D01*
X111714375Y-130603309D01*
X111538606Y-130719044D01*
X111338653Y-130802807D01*
X112521765Y-132342001D01*
X111702086Y-132342001D01*
X110633768Y-130930277D01*
X110182896Y-130913876D01*
X110182896Y-132342001D01*
X109445038Y-132342001D01*
X109445038Y-129459385D01*
X110182896Y-129459385D01*
X110182896Y-130401503D01*
X110483314Y-130415413D01*
X110780707Y-130400778D01*
X110990857Y-130362923D01*
X111134954Y-130308911D01*
X111220086Y-130248192D01*
X111283765Y-130163579D01*
X111325705Y-130048750D01*
X111341339Y-129894528D01*
X111314677Y-129739136D01*
X111241196Y-129626340D01*
X111120055Y-129545127D01*
X110966659Y-129494836D01*
X110741871Y-129459268D01*
X110423230Y-129445476D01*
X110182896Y-129459385D01*
X109445038Y-129459385D01*
X109445038Y-128935594D01*
X109906657Y-128918155D01*
X110554389Y-128900716D01*
X110960228Y-128921310D01*
G37*
G36*
X114266392Y-129478693D02*
G01*
X114266392Y-132342001D01*
X113555889Y-132342001D01*
X113555889Y-129478693D01*
X112282651Y-129478693D01*
X112282651Y-128940577D01*
X115597027Y-128940577D01*
X115597027Y-129478693D01*
X114266392Y-129478693D01*
G37*
G36*
X117606441Y-128907763D02*
G01*
X117905130Y-128965427D01*
X118162888Y-129057098D01*
X118385956Y-129181817D01*
X118578743Y-129341050D01*
X118734961Y-129525458D01*
X118860440Y-129739863D01*
X118954367Y-129988812D01*
X119014090Y-130277876D01*
X119035233Y-130613469D01*
X119013627Y-130946942D01*
X118952161Y-131238499D01*
X118854674Y-131493761D01*
X118723321Y-131717586D01*
X118558471Y-131913916D01*
X118356192Y-132084072D01*
X118124677Y-132216543D01*
X117859792Y-132313327D01*
X117555535Y-132373883D01*
X117204389Y-132395148D01*
X116883935Y-132374333D01*
X116606458Y-132314974D01*
X116364715Y-132219724D01*
X116153103Y-132088498D01*
X115968032Y-131918483D01*
X115821066Y-131726265D01*
X115702649Y-131504393D01*
X115613932Y-131248529D01*
X115557582Y-130953507D01*
X115537688Y-130613677D01*
X116275533Y-130613677D01*
X116293225Y-130917213D01*
X116341995Y-131165790D01*
X116416518Y-131368096D01*
X116513182Y-131531713D01*
X116647751Y-131675915D01*
X116804490Y-131775552D01*
X116987484Y-131835955D01*
X117204389Y-131857032D01*
X117464393Y-131835521D01*
X117681170Y-131774654D01*
X117863542Y-131676560D01*
X118017229Y-131538771D01*
X118131677Y-131376318D01*
X118219313Y-131173825D01*
X118276570Y-130922913D01*
X118297376Y-130613677D01*
X118275644Y-130294763D01*
X118216524Y-130043093D01*
X118127198Y-129846385D01*
X118011901Y-129694343D01*
X117871526Y-129579159D01*
X117703512Y-129496116D01*
X117502134Y-129444059D01*
X117259099Y-129425546D01*
X117030273Y-129446626D01*
X116837026Y-129506895D01*
X116671608Y-129605681D01*
X116529546Y-129747335D01*
X116424221Y-129910815D01*
X116344783Y-130105749D01*
X116293774Y-130337821D01*
X116275533Y-130613677D01*
X115537688Y-130613677D01*
X115537676Y-130613469D01*
X115557707Y-130323535D01*
X115615820Y-130059189D01*
X115710062Y-129817051D01*
X115839879Y-129594222D01*
X116006133Y-129388384D01*
X116207932Y-129206765D01*
X116430488Y-129068328D01*
X116676605Y-128969290D01*
X116950822Y-128908481D01*
X117259099Y-128887430D01*
X117606441Y-128907763D01*
G37*
G36*
X121362135Y-132342001D02*
G01*
X121362135Y-128940577D01*
X122072637Y-128940577D01*
X122072637Y-132342001D01*
X121362135Y-132342001D01*
G37*
G36*
X122917473Y-132342001D02*
G01*
X122917473Y-128940577D01*
X123627976Y-128940577D01*
X123627976Y-132342001D01*
X122917473Y-132342001D01*
G37*
G36*
X127563429Y-128933266D02*
G01*
X127872213Y-128988321D01*
X128144401Y-129076389D01*
X128385215Y-129196547D01*
X128598562Y-129349769D01*
X128779801Y-129531589D01*
X128921262Y-129734623D01*
X129024430Y-129961859D01*
X129088616Y-130217331D01*
X129110983Y-130505929D01*
X129086007Y-130886320D01*
X129016147Y-131206397D01*
X128907363Y-131475230D01*
X128763202Y-131700598D01*
X128584603Y-131888695D01*
X128369827Y-132043812D01*
X128114588Y-132168061D01*
X127812336Y-132261227D01*
X127454632Y-132320775D01*
X127031500Y-132342001D01*
X126143433Y-132342001D01*
X126143433Y-129468312D01*
X126853935Y-129468312D01*
X126853935Y-131789975D01*
X127225429Y-131803885D01*
X127487080Y-131781888D01*
X127709963Y-131719046D01*
X127902004Y-131616752D01*
X128068311Y-131471922D01*
X128194651Y-131301433D01*
X128289818Y-131094808D01*
X128351101Y-130844945D01*
X128373126Y-130543298D01*
X128350641Y-130264378D01*
X128288776Y-130040353D01*
X128193547Y-129861083D01*
X128067465Y-129718471D01*
X127909298Y-129607007D01*
X127714209Y-129524281D01*
X127474252Y-129471242D01*
X127179023Y-129452119D01*
X126853935Y-129468312D01*
X126143433Y-129468312D01*
X126143433Y-128939539D01*
X127211751Y-128914003D01*
X127563429Y-128933266D01*
G37*
G36*
X129738688Y-128940577D02*
G01*
X130449190Y-128940577D01*
X130449190Y-131240856D01*
X130472294Y-131416331D01*
X130538085Y-131562462D01*
X130645806Y-131685757D01*
X130788718Y-131778697D01*
X130965828Y-131836413D01*
X131187048Y-131857032D01*
X131436545Y-131836314D01*
X131632479Y-131779140D01*
X131786664Y-131689078D01*
X131903692Y-131566400D01*
X131975589Y-131415872D01*
X132001109Y-131229230D01*
X132001109Y-128940577D01*
X132711612Y-128940577D01*
X132711612Y-131277602D01*
X132683762Y-131534140D01*
X132604550Y-131751809D01*
X132476672Y-131938193D01*
X132297620Y-132098478D01*
X132082747Y-132223880D01*
X131831698Y-132316224D01*
X131537732Y-132374512D01*
X131192421Y-132395148D01*
X130842423Y-132374413D01*
X130553231Y-132316626D01*
X130314248Y-132226379D01*
X130117020Y-132105329D01*
X129956088Y-131950424D01*
X129838874Y-131764980D01*
X129764991Y-131542784D01*
X129738688Y-131275319D01*
X129738688Y-128940577D01*
G37*
G36*
X135410768Y-128907763D02*
G01*
X135709456Y-128965427D01*
X135967214Y-129057098D01*
X136190283Y-129181817D01*
X136383070Y-129341050D01*
X136539288Y-129525458D01*
X136664766Y-129739863D01*
X136758694Y-129988812D01*
X136818416Y-130277876D01*
X136839560Y-130613469D01*
X136817954Y-130946942D01*
X136756487Y-131238499D01*
X136659001Y-131493761D01*
X136527648Y-131717586D01*
X136362798Y-131913916D01*
X136160518Y-132084072D01*
X135929003Y-132216543D01*
X135664118Y-132313327D01*
X135359862Y-132373883D01*
X135008715Y-132395148D01*
X134688262Y-132374333D01*
X134410784Y-132314974D01*
X134169042Y-132219724D01*
X133957430Y-132088498D01*
X133772358Y-131918483D01*
X133625393Y-131726265D01*
X133506976Y-131504393D01*
X133418258Y-131248529D01*
X133361908Y-130953507D01*
X133342014Y-130613677D01*
X134079860Y-130613677D01*
X134097552Y-130917213D01*
X134146321Y-131165790D01*
X134220844Y-131368096D01*
X134317508Y-131531713D01*
X134452077Y-131675915D01*
X134608816Y-131775552D01*
X134791811Y-131835955D01*
X135008715Y-131857032D01*
X135268720Y-131835521D01*
X135485497Y-131774654D01*
X135667869Y-131676560D01*
X135821556Y-131538771D01*
X135936003Y-131376318D01*
X136023639Y-131173825D01*
X136080896Y-130922913D01*
X136101702Y-130613677D01*
X136079971Y-130294763D01*
X136020851Y-130043093D01*
X135931525Y-129846385D01*
X135816227Y-129694343D01*
X135675852Y-129579159D01*
X135507839Y-129496116D01*
X135306461Y-129444059D01*
X135063426Y-129425546D01*
X134834600Y-129446626D01*
X134641352Y-129506895D01*
X134475935Y-129605681D01*
X134333872Y-129747335D01*
X134228547Y-129910815D01*
X134149110Y-130105749D01*
X134098101Y-130337821D01*
X134079860Y-130613677D01*
X133342014Y-130613677D01*
X133342002Y-130613469D01*
X133362033Y-130323535D01*
X133420147Y-130059189D01*
X133514389Y-129817051D01*
X133644206Y-129594222D01*
X133810460Y-129388384D01*
X134012259Y-129206765D01*
X134234815Y-129068328D01*
X134480932Y-128969290D01*
X134755148Y-128908481D01*
X135063426Y-128887430D01*
X135410768Y-128907763D01*
G37*
X106974510Y-148300828D02*
X106974510Y-146800828D01*
X106974510Y-147372257D02*
X107117368Y-147300828D01*
X107117368Y-147300828D02*
X107403082Y-147300828D01*
X107403082Y-147300828D02*
X107545939Y-147372257D01*
X107545939Y-147372257D02*
X107617368Y-147443685D01*
X107617368Y-147443685D02*
X107688796Y-147586542D01*
X107688796Y-147586542D02*
X107688796Y-148015114D01*
X107688796Y-148015114D02*
X107617368Y-148157971D01*
X107617368Y-148157971D02*
X107545939Y-148229400D01*
X107545939Y-148229400D02*
X107403082Y-148300828D01*
X107403082Y-148300828D02*
X107117368Y-148300828D01*
X107117368Y-148300828D02*
X106974510Y-148229400D01*
X108188796Y-147300828D02*
X108545939Y-148300828D01*
X108903082Y-147300828D02*
X108545939Y-148300828D01*
X108545939Y-148300828D02*
X108403082Y-148657971D01*
X108403082Y-148657971D02*
X108331653Y-148729400D01*
X108331653Y-148729400D02*
X108188796Y-148800828D01*
X110545939Y-147872257D02*
X111260225Y-147872257D01*
X110403082Y-148300828D02*
X110903082Y-146800828D01*
X110903082Y-146800828D02*
X111403082Y-148300828D01*
X111903081Y-148157971D02*
X111974510Y-148229400D01*
X111974510Y-148229400D02*
X111903081Y-148300828D01*
X111903081Y-148300828D02*
X111831653Y-148229400D01*
X111831653Y-148229400D02*
X111903081Y-148157971D01*
X111903081Y-148157971D02*
X111903081Y-148300828D01*
X112903082Y-146800828D02*
X113188796Y-146800828D01*
X113188796Y-146800828D02*
X113331653Y-146872257D01*
X113331653Y-146872257D02*
X113474510Y-147015114D01*
X113474510Y-147015114D02*
X113545939Y-147300828D01*
X113545939Y-147300828D02*
X113545939Y-147800828D01*
X113545939Y-147800828D02*
X113474510Y-148086542D01*
X113474510Y-148086542D02*
X113331653Y-148229400D01*
X113331653Y-148229400D02*
X113188796Y-148300828D01*
X113188796Y-148300828D02*
X112903082Y-148300828D01*
X112903082Y-148300828D02*
X112760225Y-148229400D01*
X112760225Y-148229400D02*
X112617367Y-148086542D01*
X112617367Y-148086542D02*
X112545939Y-147800828D01*
X112545939Y-147800828D02*
X112545939Y-147300828D01*
X112545939Y-147300828D02*
X112617367Y-147015114D01*
X112617367Y-147015114D02*
X112760225Y-146872257D01*
X112760225Y-146872257D02*
X112903082Y-146800828D01*
X113974511Y-147300828D02*
X114545939Y-147300828D01*
X114188796Y-146800828D02*
X114188796Y-148086542D01*
X114188796Y-148086542D02*
X114260225Y-148229400D01*
X114260225Y-148229400D02*
X114403082Y-148300828D01*
X114403082Y-148300828D02*
X114545939Y-148300828D01*
X114831654Y-147300828D02*
X115403082Y-147300828D01*
X115045939Y-146800828D02*
X115045939Y-148086542D01*
X115045939Y-148086542D02*
X115117368Y-148229400D01*
X115117368Y-148229400D02*
X115260225Y-148300828D01*
X115260225Y-148300828D02*
X115403082Y-148300828D01*
X116545940Y-148300828D02*
X116545940Y-147515114D01*
X116545940Y-147515114D02*
X116474511Y-147372257D01*
X116474511Y-147372257D02*
X116331654Y-147300828D01*
X116331654Y-147300828D02*
X116045940Y-147300828D01*
X116045940Y-147300828D02*
X115903082Y-147372257D01*
X116545940Y-148229400D02*
X116403082Y-148300828D01*
X116403082Y-148300828D02*
X116045940Y-148300828D01*
X116045940Y-148300828D02*
X115903082Y-148229400D01*
X115903082Y-148229400D02*
X115831654Y-148086542D01*
X115831654Y-148086542D02*
X115831654Y-147943685D01*
X115831654Y-147943685D02*
X115903082Y-147800828D01*
X115903082Y-147800828D02*
X116045940Y-147729400D01*
X116045940Y-147729400D02*
X116403082Y-147729400D01*
X116403082Y-147729400D02*
X116545940Y-147657971D01*
X117117368Y-147300828D02*
X117474511Y-148300828D01*
X117474511Y-148300828D02*
X117831654Y-147300828D01*
X118403082Y-148300828D02*
X118403082Y-147300828D01*
X118403082Y-146800828D02*
X118331654Y-146872257D01*
X118331654Y-146872257D02*
X118403082Y-146943685D01*
X118403082Y-146943685D02*
X118474511Y-146872257D01*
X118474511Y-146872257D02*
X118403082Y-146800828D01*
X118403082Y-146800828D02*
X118403082Y-146943685D01*
X119760226Y-148300828D02*
X119760226Y-147515114D01*
X119760226Y-147515114D02*
X119688797Y-147372257D01*
X119688797Y-147372257D02*
X119545940Y-147300828D01*
X119545940Y-147300828D02*
X119260226Y-147300828D01*
X119260226Y-147300828D02*
X119117368Y-147372257D01*
X119760226Y-148229400D02*
X119617368Y-148300828D01*
X119617368Y-148300828D02*
X119260226Y-148300828D01*
X119260226Y-148300828D02*
X119117368Y-148229400D01*
X119117368Y-148229400D02*
X119045940Y-148086542D01*
X119045940Y-148086542D02*
X119045940Y-147943685D01*
X119045940Y-147943685D02*
X119117368Y-147800828D01*
X119117368Y-147800828D02*
X119260226Y-147729400D01*
X119260226Y-147729400D02*
X119617368Y-147729400D01*
X119617368Y-147729400D02*
X119760226Y-147657971D01*
X120474511Y-147300828D02*
X120474511Y-148300828D01*
X120474511Y-147443685D02*
X120545940Y-147372257D01*
X120545940Y-147372257D02*
X120688797Y-147300828D01*
X120688797Y-147300828D02*
X120903083Y-147300828D01*
X120903083Y-147300828D02*
X121045940Y-147372257D01*
X121045940Y-147372257D02*
X121117369Y-147515114D01*
X121117369Y-147515114D02*
X121117369Y-148300828D01*
X121831654Y-148300828D02*
X121831654Y-147300828D01*
X121831654Y-146800828D02*
X121760226Y-146872257D01*
X121760226Y-146872257D02*
X121831654Y-146943685D01*
X121831654Y-146943685D02*
X121903083Y-146872257D01*
X121903083Y-146872257D02*
X121831654Y-146800828D01*
X121831654Y-146800828D02*
X121831654Y-146943685D01*
X124117369Y-148872257D02*
X124045940Y-148800828D01*
X124045940Y-148800828D02*
X123903083Y-148586542D01*
X123903083Y-148586542D02*
X123831655Y-148443685D01*
X123831655Y-148443685D02*
X123760226Y-148229400D01*
X123760226Y-148229400D02*
X123688797Y-147872257D01*
X123688797Y-147872257D02*
X123688797Y-147586542D01*
X123688797Y-147586542D02*
X123760226Y-147229400D01*
X123760226Y-147229400D02*
X123831655Y-147015114D01*
X123831655Y-147015114D02*
X123903083Y-146872257D01*
X123903083Y-146872257D02*
X124045940Y-146657971D01*
X124045940Y-146657971D02*
X124117369Y-146586542D01*
X124617369Y-146943685D02*
X124688797Y-146872257D01*
X124688797Y-146872257D02*
X124831655Y-146800828D01*
X124831655Y-146800828D02*
X125188797Y-146800828D01*
X125188797Y-146800828D02*
X125331655Y-146872257D01*
X125331655Y-146872257D02*
X125403083Y-146943685D01*
X125403083Y-146943685D02*
X125474512Y-147086542D01*
X125474512Y-147086542D02*
X125474512Y-147229400D01*
X125474512Y-147229400D02*
X125403083Y-147443685D01*
X125403083Y-147443685D02*
X124545940Y-148300828D01*
X124545940Y-148300828D02*
X125474512Y-148300828D01*
X126403083Y-146800828D02*
X126545940Y-146800828D01*
X126545940Y-146800828D02*
X126688797Y-146872257D01*
X126688797Y-146872257D02*
X126760226Y-146943685D01*
X126760226Y-146943685D02*
X126831654Y-147086542D01*
X126831654Y-147086542D02*
X126903083Y-147372257D01*
X126903083Y-147372257D02*
X126903083Y-147729400D01*
X126903083Y-147729400D02*
X126831654Y-148015114D01*
X126831654Y-148015114D02*
X126760226Y-148157971D01*
X126760226Y-148157971D02*
X126688797Y-148229400D01*
X126688797Y-148229400D02*
X126545940Y-148300828D01*
X126545940Y-148300828D02*
X126403083Y-148300828D01*
X126403083Y-148300828D02*
X126260226Y-148229400D01*
X126260226Y-148229400D02*
X126188797Y-148157971D01*
X126188797Y-148157971D02*
X126117368Y-148015114D01*
X126117368Y-148015114D02*
X126045940Y-147729400D01*
X126045940Y-147729400D02*
X126045940Y-147372257D01*
X126045940Y-147372257D02*
X126117368Y-147086542D01*
X126117368Y-147086542D02*
X126188797Y-146943685D01*
X126188797Y-146943685D02*
X126260226Y-146872257D01*
X126260226Y-146872257D02*
X126403083Y-146800828D01*
X127474511Y-146943685D02*
X127545939Y-146872257D01*
X127545939Y-146872257D02*
X127688797Y-146800828D01*
X127688797Y-146800828D02*
X128045939Y-146800828D01*
X128045939Y-146800828D02*
X128188797Y-146872257D01*
X128188797Y-146872257D02*
X128260225Y-146943685D01*
X128260225Y-146943685D02*
X128331654Y-147086542D01*
X128331654Y-147086542D02*
X128331654Y-147229400D01*
X128331654Y-147229400D02*
X128260225Y-147443685D01*
X128260225Y-147443685D02*
X127403082Y-148300828D01*
X127403082Y-148300828D02*
X128331654Y-148300828D01*
X129617368Y-146800828D02*
X129331653Y-146800828D01*
X129331653Y-146800828D02*
X129188796Y-146872257D01*
X129188796Y-146872257D02*
X129117368Y-146943685D01*
X129117368Y-146943685D02*
X128974510Y-147157971D01*
X128974510Y-147157971D02*
X128903082Y-147443685D01*
X128903082Y-147443685D02*
X128903082Y-148015114D01*
X128903082Y-148015114D02*
X128974510Y-148157971D01*
X128974510Y-148157971D02*
X129045939Y-148229400D01*
X129045939Y-148229400D02*
X129188796Y-148300828D01*
X129188796Y-148300828D02*
X129474510Y-148300828D01*
X129474510Y-148300828D02*
X129617368Y-148229400D01*
X129617368Y-148229400D02*
X129688796Y-148157971D01*
X129688796Y-148157971D02*
X129760225Y-148015114D01*
X129760225Y-148015114D02*
X129760225Y-147657971D01*
X129760225Y-147657971D02*
X129688796Y-147515114D01*
X129688796Y-147515114D02*
X129617368Y-147443685D01*
X129617368Y-147443685D02*
X129474510Y-147372257D01*
X129474510Y-147372257D02*
X129188796Y-147372257D01*
X129188796Y-147372257D02*
X129045939Y-147443685D01*
X129045939Y-147443685D02*
X128974510Y-147515114D01*
X128974510Y-147515114D02*
X128903082Y-147657971D01*
X130260224Y-148872257D02*
X130331653Y-148800828D01*
X130331653Y-148800828D02*
X130474510Y-148586542D01*
X130474510Y-148586542D02*
X130545939Y-148443685D01*
X130545939Y-148443685D02*
X130617367Y-148229400D01*
X130617367Y-148229400D02*
X130688796Y-147872257D01*
X130688796Y-147872257D02*
X130688796Y-147586542D01*
X130688796Y-147586542D02*
X130617367Y-147229400D01*
X130617367Y-147229400D02*
X130545939Y-147015114D01*
X130545939Y-147015114D02*
X130474510Y-146872257D01*
X130474510Y-146872257D02*
X130331653Y-146657971D01*
X130331653Y-146657971D02*
X130260224Y-146586542D01*
G36*
X123821027Y-139581186D02*
G01*
X123489162Y-140480000D01*
X120740209Y-140480000D01*
X120740209Y-140324600D01*
X121469227Y-139635576D01*
X122003604Y-139072075D01*
X122378891Y-138615446D01*
X122626985Y-138248536D01*
X122800862Y-137896327D01*
X122898437Y-137570819D01*
X122929541Y-137265458D01*
X122898260Y-136982608D01*
X122808921Y-136744938D01*
X122662400Y-136542500D01*
X122469850Y-136383470D01*
X122259508Y-136290808D01*
X122024010Y-136259483D01*
X121804713Y-136281637D01*
X121603710Y-136346912D01*
X121416456Y-136456404D01*
X121257127Y-136603487D01*
X121123698Y-136795530D01*
X121016509Y-137041060D01*
X120871795Y-137041060D01*
X120937194Y-136724433D01*
X121034863Y-136462014D01*
X121161758Y-136245333D01*
X121317233Y-136067752D01*
X121505733Y-135921561D01*
X121713713Y-135817545D01*
X121945067Y-135753912D01*
X122205055Y-135731919D01*
X122483179Y-135755836D01*
X122730233Y-135825019D01*
X122952000Y-135938158D01*
X123152718Y-136097367D01*
X123321870Y-136292413D01*
X123439161Y-136499692D01*
X123509289Y-136722575D01*
X123533126Y-136965956D01*
X123514856Y-137196555D01*
X123458735Y-137434276D01*
X123361545Y-137681892D01*
X123171036Y-138033532D01*
X122899878Y-138423511D01*
X122533562Y-138857311D01*
X121768424Y-139684969D01*
X121502857Y-139952435D01*
X122686824Y-139952435D01*
X123143842Y-139927480D01*
X123367041Y-139872445D01*
X123531993Y-139763346D01*
X123675092Y-139581186D01*
X123821027Y-139581186D01*
G37*
G36*
X118824098Y-137567473D02*
G01*
X118824098Y-138481919D01*
X117334277Y-138481919D01*
X117173199Y-139871375D01*
X117121053Y-141180191D01*
X117150805Y-141598626D01*
X117227446Y-141887748D01*
X117337575Y-142081448D01*
X117497372Y-142233333D01*
X117675172Y-142321050D01*
X117878328Y-142350725D01*
X118118170Y-142304972D01*
X118327308Y-142166078D01*
X118480343Y-141946994D01*
X118576802Y-141612135D01*
X118826296Y-141612135D01*
X118711469Y-142265583D01*
X118549393Y-142711852D01*
X118354785Y-143004136D01*
X118091978Y-143233784D01*
X117821309Y-143363282D01*
X117533763Y-143405854D01*
X117230156Y-143357952D01*
X116963236Y-143215146D01*
X116721533Y-142964019D01*
X116561595Y-142646683D01*
X116444387Y-142127865D01*
X116397301Y-141325272D01*
X116441816Y-140410166D01*
X116629209Y-138481919D01*
X115066849Y-138481919D01*
X114901246Y-140675096D01*
X114743337Y-141922803D01*
X114604131Y-142545265D01*
X114427787Y-142972611D01*
X114243033Y-143228353D01*
X114051892Y-143363026D01*
X113845757Y-143405854D01*
X113634836Y-143367989D01*
X113467119Y-143257477D01*
X113355522Y-143091950D01*
X113317643Y-142887083D01*
X113368201Y-142611760D01*
X113658911Y-142158934D01*
X113978828Y-141636468D01*
X114178782Y-141107651D01*
X114321033Y-140475562D01*
X114438989Y-139617245D01*
X114521149Y-138481919D01*
X114256817Y-138481919D01*
X113847204Y-138523169D01*
X113596263Y-138625900D01*
X113272753Y-138901155D01*
X112945600Y-139361193D01*
X112671376Y-139361193D01*
X112948304Y-138653329D01*
X113222178Y-138177489D01*
X113489651Y-137876318D01*
X113743507Y-137711462D01*
X114068447Y-137605907D01*
X114484330Y-137567473D01*
X118824098Y-137567473D01*
G37*
D11*
X119224761Y-122350057D02*
X119129523Y-122302438D01*
X119129523Y-122302438D02*
X119034285Y-122207200D01*
X119034285Y-122207200D02*
X118891428Y-122064342D01*
X118891428Y-122064342D02*
X118796190Y-122016723D01*
X118796190Y-122016723D02*
X118700952Y-122016723D01*
X118748571Y-122254819D02*
X118653333Y-122207200D01*
X118653333Y-122207200D02*
X118558095Y-122111961D01*
X118558095Y-122111961D02*
X118510476Y-121921485D01*
X118510476Y-121921485D02*
X118510476Y-121588152D01*
X118510476Y-121588152D02*
X118558095Y-121397676D01*
X118558095Y-121397676D02*
X118653333Y-121302438D01*
X118653333Y-121302438D02*
X118748571Y-121254819D01*
X118748571Y-121254819D02*
X118939047Y-121254819D01*
X118939047Y-121254819D02*
X119034285Y-121302438D01*
X119034285Y-121302438D02*
X119129523Y-121397676D01*
X119129523Y-121397676D02*
X119177142Y-121588152D01*
X119177142Y-121588152D02*
X119177142Y-121921485D01*
X119177142Y-121921485D02*
X119129523Y-122111961D01*
X119129523Y-122111961D02*
X119034285Y-122207200D01*
X119034285Y-122207200D02*
X118939047Y-122254819D01*
X118939047Y-122254819D02*
X118748571Y-122254819D01*
X120129523Y-122254819D02*
X119558095Y-122254819D01*
X119843809Y-122254819D02*
X119843809Y-121254819D01*
X119843809Y-121254819D02*
X119748571Y-121397676D01*
X119748571Y-121397676D02*
X119653333Y-121492914D01*
X119653333Y-121492914D02*
X119558095Y-121540533D01*
X137766167Y-76631876D02*
X137766167Y-77089019D01*
X137766167Y-77089019D02*
X137735690Y-77180447D01*
X137735690Y-77180447D02*
X137674738Y-77241400D01*
X137674738Y-77241400D02*
X137583309Y-77271876D01*
X137583309Y-77271876D02*
X137522357Y-77271876D01*
X138009976Y-76631876D02*
X138406167Y-76631876D01*
X138406167Y-76631876D02*
X138192833Y-76875685D01*
X138192833Y-76875685D02*
X138284262Y-76875685D01*
X138284262Y-76875685D02*
X138345214Y-76906161D01*
X138345214Y-76906161D02*
X138375690Y-76936638D01*
X138375690Y-76936638D02*
X138406167Y-76997590D01*
X138406167Y-76997590D02*
X138406167Y-77149971D01*
X138406167Y-77149971D02*
X138375690Y-77210923D01*
X138375690Y-77210923D02*
X138345214Y-77241400D01*
X138345214Y-77241400D02*
X138284262Y-77271876D01*
X138284262Y-77271876D02*
X138101405Y-77271876D01*
X138101405Y-77271876D02*
X138040452Y-77241400D01*
X138040452Y-77241400D02*
X138009976Y-77210923D01*
D12*
%TO.C,D1*%
X102050000Y-129180000D02*
X102050000Y-130200000D01*
X102050000Y-136660000D02*
X102050000Y-135640000D01*
X103520000Y-130980000D02*
X100580000Y-130980000D01*
X103520000Y-131100000D02*
X100580000Y-131100000D01*
X103520000Y-131220000D02*
X100580000Y-131220000D01*
X103520000Y-130200000D02*
X100580000Y-130200000D01*
X100580000Y-135640000D01*
X103520000Y-135640000D01*
X103520000Y-130200000D01*
%TO.C,U1*%
X94370000Y-96090000D02*
X94670000Y-96090000D01*
X94370000Y-117090000D02*
X94370000Y-96090000D01*
X94370000Y-117090000D02*
X94670000Y-117090000D01*
X96770000Y-96090000D02*
X97170000Y-96090000D01*
X96770000Y-117090000D02*
X97170000Y-117090000D01*
X97037000Y-114083000D02*
X94370000Y-114083000D01*
X97037000Y-117090000D02*
X97037000Y-114083000D01*
X99370000Y-96090000D02*
X99770000Y-96090000D01*
X99370000Y-117090000D02*
X99770000Y-117090000D01*
X101870000Y-96090000D02*
X102270000Y-96090000D01*
X101870000Y-117090000D02*
X102270000Y-117090000D01*
X104470000Y-96090000D02*
X104870000Y-96090000D01*
X104470000Y-117090000D02*
X104870000Y-117090000D01*
X106970000Y-96090000D02*
X107370000Y-96090000D01*
X106970000Y-117090000D02*
X107370000Y-117090000D01*
X109470000Y-96090000D02*
X109870000Y-96090000D01*
X109470000Y-117090000D02*
X109870000Y-117090000D01*
X112070000Y-96090000D02*
X112470000Y-96090000D01*
X112070000Y-117090000D02*
X112470000Y-117090000D01*
X114570000Y-96090000D02*
X114970000Y-96090000D01*
X114570000Y-117090000D02*
X114970000Y-117090000D01*
X117170000Y-96090000D02*
X117570000Y-96090000D01*
X117170000Y-117090000D02*
X117570000Y-117090000D01*
X119670000Y-96090000D02*
X120070000Y-96090000D01*
X119670000Y-117090000D02*
X120070000Y-117090000D01*
X122170000Y-96090000D02*
X122570000Y-96090000D01*
X122170000Y-117090000D02*
X122570000Y-117090000D01*
X124770000Y-96090000D02*
X125170000Y-96090000D01*
X124770000Y-117090000D02*
X125170000Y-117090000D01*
X127270000Y-96090000D02*
X127670000Y-96090000D01*
X127270000Y-117090000D02*
X127670000Y-117090000D01*
X129870000Y-96090000D02*
X130270000Y-96090000D01*
X129870000Y-117090000D02*
X130270000Y-117090000D01*
X132370000Y-96090000D02*
X132770000Y-96090000D01*
X132370000Y-117090000D02*
X132770000Y-117090000D01*
X134970000Y-96090000D02*
X135370000Y-96090000D01*
X134970000Y-117090000D02*
X135370000Y-117090000D01*
X137470000Y-96090000D02*
X137870000Y-96090000D01*
X137470000Y-117090000D02*
X137870000Y-117090000D01*
X139970000Y-96090000D02*
X140370000Y-96090000D01*
X139970000Y-117090000D02*
X140370000Y-117090000D01*
X142570000Y-96090000D02*
X142970000Y-96090000D01*
X142570000Y-117090000D02*
X142970000Y-117090000D01*
X145370000Y-96090000D02*
X145370000Y-102890000D01*
X145370000Y-105490000D02*
X145370000Y-105090000D01*
X145370000Y-108090000D02*
X145370000Y-107690000D01*
X145370000Y-110290000D02*
X145370000Y-117090000D01*
%TO.C,Q1*%
X117520000Y-127450000D02*
X121120000Y-127450000D01*
X117508547Y-127442156D02*
G75*
G02*
X118500000Y-123150000I1811453J1842156D01*
G01*
X120100000Y-123150000D02*
G75*
G02*
X121128445Y-127427684I-780000J-2450000D01*
G01*
D11*
%TO.C,J3*%
X133624355Y-79435032D02*
X133624355Y-82185032D01*
X142374355Y-77935032D02*
X135124355Y-77935032D01*
X142374355Y-92685032D02*
X135124355Y-92685032D01*
X145602500Y-77935032D02*
X145124355Y-77935032D01*
X145602500Y-79335032D02*
X145602500Y-77935032D01*
X145602500Y-91420000D02*
X145602500Y-92685032D01*
X145613428Y-92685032D02*
X145135283Y-92685032D01*
X146902500Y-86170000D02*
X148102500Y-86170000D01*
X148102500Y-77935032D02*
X145602500Y-77935032D01*
X148102500Y-80735032D02*
X148102500Y-77935032D01*
X148102500Y-86170000D02*
X148102500Y-80670000D01*
X148102500Y-91670000D02*
X148102500Y-86170000D01*
X148102500Y-92685032D02*
X145602500Y-92685032D01*
X148102500Y-92685032D02*
X148102500Y-91670000D01*
D12*
%TO.C,SW1*%
X92140000Y-81820000D02*
X94240000Y-81820000D01*
X92140000Y-89540000D02*
X94240000Y-89540000D01*
X94010000Y-82340000D02*
X94240000Y-82340000D01*
X94010000Y-82880000D02*
X94010000Y-82340000D01*
X94010000Y-87380000D02*
X94010000Y-83980000D01*
X94010000Y-89020000D02*
X94010000Y-88480000D01*
X94010000Y-89020000D02*
X94240000Y-89020000D01*
X96840000Y-81820000D02*
X97350000Y-81820000D01*
X96840000Y-82340000D02*
X97350000Y-82340000D01*
X96840000Y-89020000D02*
X97350000Y-89020000D01*
X96840000Y-89540000D02*
X97350000Y-89540000D01*
X97350000Y-82340000D02*
X97350000Y-81820000D01*
X97350000Y-89540000D02*
X97350000Y-89020000D01*
%TD*%
%LPC*%
D13*
%TO.C,D1*%
X102050000Y-127840000D03*
D14*
X102050000Y-138000000D03*
%TD*%
D15*
%TO.C,U1*%
X95740000Y-115480000D03*
D16*
X95740000Y-116380000D03*
D15*
X98280000Y-115480000D03*
D16*
X98280000Y-116380000D03*
D17*
X100820000Y-115480000D03*
D16*
X100820000Y-116380000D03*
D15*
X103360000Y-115480000D03*
D16*
X103360000Y-116380000D03*
D15*
X105900000Y-115480000D03*
D16*
X105900000Y-116380000D03*
D15*
X108440000Y-115480000D03*
D16*
X108440000Y-116380000D03*
D15*
X110980000Y-115480000D03*
D16*
X110980000Y-116380000D03*
D17*
X113520000Y-115480000D03*
D16*
X113520000Y-116380000D03*
D15*
X116060000Y-115480000D03*
D16*
X116060000Y-116380000D03*
D15*
X118600000Y-115480000D03*
D16*
X118600000Y-116380000D03*
D15*
X121140000Y-115480000D03*
D16*
X121140000Y-116380000D03*
D15*
X123680000Y-115480000D03*
D16*
X123680000Y-116380000D03*
D17*
X126220000Y-115480000D03*
D16*
X126220000Y-116380000D03*
D15*
X128760000Y-115480000D03*
D16*
X128760000Y-116380000D03*
D15*
X131300000Y-115480000D03*
D16*
X131300000Y-116380000D03*
D15*
X133840000Y-115480000D03*
D16*
X133840000Y-116380000D03*
D15*
X136380000Y-115480000D03*
D16*
X136380000Y-116380000D03*
D17*
X138920000Y-115480000D03*
D16*
X138920000Y-116380000D03*
D15*
X141460000Y-115480000D03*
D16*
X141460000Y-116380000D03*
D15*
X144000000Y-115480000D03*
D16*
X144000000Y-116380000D03*
D15*
X144000000Y-97700000D03*
D16*
X144000000Y-96800000D03*
D15*
X141460000Y-97700000D03*
D16*
X141460000Y-96800000D03*
D17*
X138920000Y-97700000D03*
D16*
X138920000Y-96800000D03*
D15*
X136380000Y-97700000D03*
D16*
X136380000Y-96800000D03*
D15*
X133840000Y-97700000D03*
D16*
X133840000Y-96800000D03*
D15*
X131300000Y-97700000D03*
D16*
X131300000Y-96800000D03*
D15*
X128760000Y-97700000D03*
D16*
X128760000Y-96800000D03*
D17*
X126220000Y-97700000D03*
D16*
X126220000Y-96800000D03*
D15*
X123680000Y-97700000D03*
D16*
X123680000Y-96800000D03*
D15*
X121140000Y-97700000D03*
D16*
X121140000Y-96800000D03*
D15*
X118600000Y-97700000D03*
D16*
X118600000Y-96800000D03*
D15*
X116060000Y-97700000D03*
D16*
X116060000Y-96800000D03*
D17*
X113520000Y-97700000D03*
D16*
X113520000Y-96800000D03*
D15*
X110980000Y-97700000D03*
D16*
X110980000Y-96800000D03*
D15*
X108440000Y-97700000D03*
D16*
X108440000Y-96800000D03*
D15*
X105900000Y-97700000D03*
D16*
X105900000Y-96800000D03*
D15*
X103360000Y-97700000D03*
D16*
X103360000Y-96800000D03*
D17*
X100820000Y-97700000D03*
D16*
X100820000Y-96800000D03*
D15*
X98280000Y-97700000D03*
D16*
X98280000Y-96800000D03*
D15*
X95740000Y-97700000D03*
D16*
X95740000Y-96800000D03*
%TD*%
D18*
%TO.C,Q1*%
X118050000Y-126000000D03*
D19*
X119320000Y-123930000D03*
X120590000Y-126000000D03*
%TD*%
D20*
%TO.C,J3*%
X144102500Y-82170000D03*
X144102500Y-90170000D03*
D21*
X133602500Y-82970000D03*
X133602500Y-84070000D03*
X133602500Y-85170000D03*
X133602500Y-86270000D03*
X133602500Y-87370000D03*
X133602500Y-88470000D03*
X133602500Y-89570000D03*
X133602500Y-90670000D03*
X133602500Y-91770000D03*
D22*
X143702500Y-77470000D03*
D23*
X134102500Y-78370000D03*
D22*
X143702500Y-92970000D03*
D24*
X134102500Y-92970000D03*
%TD*%
D25*
%TO.C,SW1*%
X95530000Y-89180000D03*
X95530000Y-82170000D03*
D26*
X93040000Y-87930000D03*
X93040000Y-83430000D03*
%TD*%
D27*
%TO.C,CN1*%
X145737700Y-173734000D03*
X143197700Y-173734000D03*
X140657700Y-173734000D03*
X138117700Y-173734000D03*
X135577700Y-173734000D03*
X133037700Y-173734000D03*
X130497700Y-173734000D03*
X127957700Y-173734000D03*
X125417700Y-173734000D03*
X122877700Y-173734000D03*
X120337700Y-173734000D03*
X117797700Y-173734000D03*
X115257700Y-173734000D03*
X112717700Y-173734000D03*
X110177700Y-173734000D03*
X107637700Y-173734000D03*
X105097700Y-173734000D03*
X102557700Y-173734000D03*
X100017700Y-173734000D03*
X97477700Y-173734000D03*
X94937700Y-173734000D03*
X92397700Y-173734000D03*
%TD*%
%LPD*%
M02*
