%TF.GenerationSoftware,KiCad,Pcbnew,9.0.6*%
%TF.CreationDate,2025-12-23T16:48:34+01:00*%
%TF.ProjectId,PiRTOII2_cart,50695254-4f49-4493-925f-636172742e6b,1git*%
%TF.SameCoordinates,Original*%
%TF.FileFunction,Soldermask,Bot*%
%TF.FilePolarity,Negative*%
%FSLAX46Y46*%
G04 Gerber Fmt 4.6, Leading zero omitted, Abs format (unit mm)*
G04 Created by KiCad (PCBNEW 9.0.6) date 2025-12-23 16:48:34*
%MOMM*%
%LPD*%
G01*
G04 APERTURE LIST*
G04 Aperture macros list*
%AMRoundRect*
0 Rectangle with rounded corners*
0 $1 Rounding radius*
0 $2 $3 $4 $5 $6 $7 $8 $9 X,Y pos of 4 corners*
0 Add a 4 corners polygon primitive as box body*
4,1,4,$2,$3,$4,$5,$6,$7,$8,$9,$2,$3,0*
0 Add four circle primitives for the rounded corners*
1,1,$1+$1,$2,$3*
1,1,$1+$1,$4,$5*
1,1,$1+$1,$6,$7*
1,1,$1+$1,$8,$9*
0 Add four rect primitives between the rounded corners*
20,1,$1+$1,$2,$3,$4,$5,0*
20,1,$1+$1,$4,$5,$6,$7,0*
20,1,$1+$1,$6,$7,$8,$9,0*
20,1,$1+$1,$8,$9,$2,$3,0*%
G04 Aperture macros list end*
%ADD10RoundRect,0.249999X-0.850001X0.850001X-0.850001X-0.850001X0.850001X-0.850001X0.850001X0.850001X0*%
%ADD11C,2.200000*%
%ADD12O,1.700000X1.700000*%
%ADD13R,1.700000X1.700000*%
%ADD14R,1.100000X1.800000*%
%ADD15RoundRect,0.275000X-0.275000X-0.625000X0.275000X-0.625000X0.275000X0.625000X-0.275000X0.625000X0*%
%ADD16C,0.900000*%
%ADD17C,2.100000*%
%ADD18C,1.750000*%
%ADD19R,1.270000X8.840000*%
G04 APERTURE END LIST*
D10*
%TO.C,D1*%
X102050000Y-127840000D03*
D11*
X102050000Y-138000000D03*
%TD*%
D12*
%TO.C,U1*%
X95740000Y-115480000D03*
X98280000Y-115480000D03*
D13*
X100820000Y-115480000D03*
D12*
X103360000Y-115480000D03*
X105900000Y-115480000D03*
X108440000Y-115480000D03*
X110980000Y-115480000D03*
D13*
X113520000Y-115480000D03*
D12*
X116060000Y-115480000D03*
X118600000Y-115480000D03*
X121140000Y-115480000D03*
X123680000Y-115480000D03*
D13*
X126220000Y-115480000D03*
D12*
X128760000Y-115480000D03*
X131300000Y-115480000D03*
X133840000Y-115480000D03*
X136380000Y-115480000D03*
D13*
X138920000Y-115480000D03*
D12*
X141460000Y-115480000D03*
X144000000Y-115480000D03*
X144000000Y-97700000D03*
X141460000Y-97700000D03*
D13*
X138920000Y-97700000D03*
D12*
X136380000Y-97700000D03*
X133840000Y-97700000D03*
X131300000Y-97700000D03*
X128760000Y-97700000D03*
D13*
X126220000Y-97700000D03*
D12*
X123680000Y-97700000D03*
X121140000Y-97700000D03*
X118600000Y-97700000D03*
X116060000Y-97700000D03*
D13*
X113520000Y-97700000D03*
D12*
X110980000Y-97700000D03*
X108440000Y-97700000D03*
X105900000Y-97700000D03*
X103360000Y-97700000D03*
D13*
X100820000Y-97700000D03*
D12*
X98280000Y-97700000D03*
X95740000Y-97700000D03*
%TD*%
D14*
%TO.C,Q1*%
X118050000Y-126000000D03*
D15*
X119320000Y-123930000D03*
X120590000Y-126000000D03*
%TD*%
D16*
%TO.C,J3*%
X144102500Y-82170000D03*
X144102500Y-90170000D03*
%TD*%
D17*
%TO.C,SW1*%
X95530000Y-89180000D03*
X95530000Y-82170000D03*
D18*
X93040000Y-87930000D03*
X93040000Y-83430000D03*
%TD*%
D19*
%TO.C,CN1*%
X145737700Y-173734000D03*
X143197700Y-173734000D03*
X140657700Y-173734000D03*
X138117700Y-173734000D03*
X135577700Y-173734000D03*
X133037700Y-173734000D03*
X130497700Y-173734000D03*
X127957700Y-173734000D03*
X125417700Y-173734000D03*
X122877700Y-173734000D03*
X120337700Y-173734000D03*
X117797700Y-173734000D03*
X115257700Y-173734000D03*
X112717700Y-173734000D03*
X110177700Y-173734000D03*
X107637700Y-173734000D03*
X105097700Y-173734000D03*
X102557700Y-173734000D03*
X100017700Y-173734000D03*
X97477700Y-173734000D03*
X94937700Y-173734000D03*
X92397700Y-173734000D03*
%TD*%
M02*
