M48
; DRILL file {KiCad 9.0.6} date 2025-12-23T16:48:34+0100
; FORMAT={-:-/ absolute / inch / decimal}
; #@! TF.CreationDate,2025-12-23T16:48:34+01:00
; #@! TF.GenerationSoftware,Kicad,Pcbnew,9.0.6
; #@! TF.FileFunction,Plated,1,2,PTH
FMAT,2
INCH
; #@! TA.AperFunction,Plated,PTH,ViaDrill
T1C0.0157
; #@! TA.AperFunction,Plated,PTH,ViaDrill
T2C0.0236
; #@! TA.AperFunction,Plated,PTH,ComponentDrill
T3C0.0295
; #@! TA.AperFunction,Plated,PTH,ComponentDrill
T4C0.0390
; #@! TA.AperFunction,Plated,PTH,ComponentDrill
T5C0.0402
; #@! TA.AperFunction,Plated,PTH,ComponentDrill
T6C0.0433
; #@! TA.AperFunction,Plated,PTH,ComponentDrill
T7C0.0512
%
G90
G05
T1
X4.2045Y-6.5283
X4.2176Y-4.9758
X4.2419Y-6.5105
X4.2632Y-6.4777
X4.2892Y-6.2694
X4.2935Y-6.5439
X4.3536Y-5.003
X4.428Y-6.1579
X4.4654Y-4.8681
X4.5899Y-4.8243
X4.6517Y-6.5425
X4.697Y-6.5276
X4.7393Y-6.2809
X4.7452Y-3.5877
X4.7732Y-6.4127
X4.8577Y-6.1544
X4.8908Y-4.9576
X4.9403Y-4.462
X4.9527Y-6.275
X4.9678Y-4.4274
X4.9888Y-6.3035
X5.0278Y-5.1182
X5.0664Y-6.4609
X5.0694Y-4.9703
X5.0964Y-6.5001
X5.1236Y-4.683
X5.1806Y-6.5242
X5.1856Y-6.3157
X5.2045Y-6.2403
X5.2324Y-6.5393
X5.3268Y-3.5315
X5.7162Y-6.2132
T2
X3.8185Y-6.4927
X4.9744Y-4.828
X5.065Y-3.4846
X5.1549Y-3.4012
X5.1549Y-3.4846
X5.7775Y-6.4998
T3
X4.6476Y-4.9449
X4.6976Y-4.8949
X4.7476Y-4.9449
T4
X3.663Y-3.2846
X3.663Y-3.4618
T5
X3.7693Y-3.8465
X3.7693Y-4.5465
X3.8693Y-3.8465
X3.8693Y-4.5465
X3.9693Y-3.8465
X3.9693Y-4.5465
X4.0693Y-3.8465
X4.0693Y-4.5465
X4.1693Y-3.8465
X4.1693Y-4.5465
X4.2693Y-3.8465
X4.2693Y-4.5465
X4.3693Y-3.8465
X4.3693Y-4.5465
X4.4693Y-3.8465
X4.4693Y-4.5465
X4.5693Y-3.8465
X4.5693Y-4.5465
X4.6693Y-3.8465
X4.6693Y-4.5465
X4.7693Y-3.8465
X4.7693Y-4.5465
X4.8693Y-3.8465
X4.8693Y-4.5465
X4.9693Y-3.8465
X4.9693Y-4.5465
X5.0693Y-3.8465
X5.0693Y-4.5465
X5.1693Y-3.8465
X5.1693Y-4.5465
X5.2693Y-3.8465
X5.2693Y-4.5465
X5.3693Y-3.8465
X5.3693Y-4.5465
X5.4693Y-3.8465
X5.4693Y-4.5465
X5.5693Y-3.8465
X5.5693Y-4.5465
X5.6693Y-3.8465
X5.6693Y-4.5465
T6
X4.0177Y-5.0331
X4.0177Y-5.4331
T7
X3.761Y-3.235
X3.761Y-3.511
M30
