%TF.GenerationSoftware,KiCad,Pcbnew,9.0.6*%
%TF.CreationDate,2025-12-23T16:48:34+01:00*%
%TF.ProjectId,PiRTOII2_cart,50695254-4f49-4493-925f-636172742e6b,1git*%
%TF.SameCoordinates,Original*%
%TF.FileFunction,Copper,L2,Bot*%
%TF.FilePolarity,Positive*%
%FSLAX46Y46*%
G04 Gerber Fmt 4.6, Leading zero omitted, Abs format (unit mm)*
G04 Created by KiCad (PCBNEW 9.0.6) date 2025-12-23 16:48:34*
%MOMM*%
%LPD*%
G01*
G04 APERTURE LIST*
G04 Aperture macros list*
%AMRoundRect*
0 Rectangle with rounded corners*
0 $1 Rounding radius*
0 $2 $3 $4 $5 $6 $7 $8 $9 X,Y pos of 4 corners*
0 Add a 4 corners polygon primitive as box body*
4,1,4,$2,$3,$4,$5,$6,$7,$8,$9,$2,$3,0*
0 Add four circle primitives for the rounded corners*
1,1,$1+$1,$2,$3*
1,1,$1+$1,$4,$5*
1,1,$1+$1,$6,$7*
1,1,$1+$1,$8,$9*
0 Add four rect primitives between the rounded corners*
20,1,$1+$1,$2,$3,$4,$5,0*
20,1,$1+$1,$4,$5,$6,$7,0*
20,1,$1+$1,$6,$7,$8,$9,0*
20,1,$1+$1,$8,$9,$2,$3,0*%
G04 Aperture macros list end*
%TA.AperFunction,ComponentPad*%
%ADD10RoundRect,0.249999X-0.850001X0.850001X-0.850001X-0.850001X0.850001X-0.850001X0.850001X0.850001X0*%
%TD*%
%TA.AperFunction,ComponentPad*%
%ADD11C,2.200000*%
%TD*%
%TA.AperFunction,ComponentPad*%
%ADD12O,1.700000X1.700000*%
%TD*%
%TA.AperFunction,ComponentPad*%
%ADD13R,1.700000X1.700000*%
%TD*%
%TA.AperFunction,ComponentPad*%
%ADD14R,1.100000X1.800000*%
%TD*%
%TA.AperFunction,ComponentPad*%
%ADD15RoundRect,0.275000X-0.275000X-0.625000X0.275000X-0.625000X0.275000X0.625000X-0.275000X0.625000X0*%
%TD*%
%TA.AperFunction,ComponentPad*%
%ADD16C,2.100000*%
%TD*%
%TA.AperFunction,ComponentPad*%
%ADD17C,1.750000*%
%TD*%
%TA.AperFunction,ConnectorPad*%
%ADD18R,1.270000X8.840000*%
%TD*%
%TA.AperFunction,ViaPad*%
%ADD19C,0.800000*%
%TD*%
%TA.AperFunction,ViaPad*%
%ADD20C,0.600000*%
%TD*%
%TA.AperFunction,Conductor*%
%ADD21C,0.500000*%
%TD*%
%TA.AperFunction,Conductor*%
%ADD22C,0.250000*%
%TD*%
G04 APERTURE END LIST*
D10*
%TO.P,D1,1,K*%
%TO.N,Net-(D1-K)*%
X102050000Y-127840000D03*
D11*
%TO.P,D1,2,A*%
%TO.N,+5V*%
X102050000Y-138000000D03*
%TD*%
D12*
%TO.P,U1,1,GPIO0*%
%TO.N,d0'*%
X95740000Y-115480000D03*
%TO.P,U1,2,GPIO1*%
%TO.N,d1'*%
X98280000Y-115480000D03*
D13*
%TO.P,U1,3,GND*%
%TO.N,GND*%
X100820000Y-115480000D03*
D12*
%TO.P,U1,4,GPIO2*%
%TO.N,d2'*%
X103360000Y-115480000D03*
%TO.P,U1,5,GPIO3*%
%TO.N,d3'*%
X105900000Y-115480000D03*
%TO.P,U1,6,GPIO4*%
%TO.N,d4'*%
X108440000Y-115480000D03*
%TO.P,U1,7,GPIO5*%
%TO.N,d5'*%
X110980000Y-115480000D03*
D13*
%TO.P,U1,8,GND*%
%TO.N,GND*%
X113520000Y-115480000D03*
D12*
%TO.P,U1,9,GPIO6*%
%TO.N,d6'*%
X116060000Y-115480000D03*
%TO.P,U1,10,GPIO7*%
%TO.N,d7'*%
X118600000Y-115480000D03*
%TO.P,U1,11,GPIO8*%
%TO.N,d8'*%
X121140000Y-115480000D03*
%TO.P,U1,12,GPIO9*%
%TO.N,d9'*%
X123680000Y-115480000D03*
D13*
%TO.P,U1,13,GND*%
%TO.N,GND*%
X126220000Y-115480000D03*
D12*
%TO.P,U1,14,GPIO10*%
%TO.N,d10'*%
X128760000Y-115480000D03*
%TO.P,U1,15,GPIO11*%
%TO.N,d11'*%
X131300000Y-115480000D03*
%TO.P,U1,16,GPIO12*%
%TO.N,d12'*%
X133840000Y-115480000D03*
%TO.P,U1,17,GPIO13*%
%TO.N,d13'*%
X136380000Y-115480000D03*
D13*
%TO.P,U1,18,GND*%
%TO.N,GND*%
X138920000Y-115480000D03*
D12*
%TO.P,U1,19,GPIO14*%
%TO.N,d14'*%
X141460000Y-115480000D03*
%TO.P,U1,20,GPIO15*%
%TO.N,d15'*%
X144000000Y-115480000D03*
%TO.P,U1,21,GPIO16*%
%TO.N,MISO*%
X144000000Y-97700000D03*
%TO.P,U1,22,GPIO17*%
%TO.N,CS*%
X141460000Y-97700000D03*
D13*
%TO.P,U1,23,GND*%
%TO.N,GND*%
X138920000Y-97700000D03*
D12*
%TO.P,U1,24,GPIO18*%
%TO.N,SCK*%
X136380000Y-97700000D03*
%TO.P,U1,25,GPIO19*%
%TO.N,MOSI*%
X133840000Y-97700000D03*
%TO.P,U1,26,GPIO20*%
%TO.N,reset_inty_out*%
X131300000Y-97700000D03*
%TO.P,U1,27,GPIO21*%
%TO.N,~{msync'}*%
X128760000Y-97700000D03*
D13*
%TO.P,U1,28,GND*%
%TO.N,GND*%
X126220000Y-97700000D03*
D12*
%TO.P,U1,29,GPIO22*%
%TO.N,bdir'*%
X123680000Y-97700000D03*
%TO.P,U1,30,RUN*%
%TO.N,~{RESET_PICO}*%
X121140000Y-97700000D03*
%TO.P,U1,31,GPIO26_ADC0*%
%TO.N,bc1'*%
X118600000Y-97700000D03*
%TO.P,U1,32,GPIO27_ADC1*%
%TO.N,bc2'*%
X116060000Y-97700000D03*
D13*
%TO.P,U1,33,AGND*%
%TO.N,GND*%
X113520000Y-97700000D03*
D12*
%TO.P,U1,34,GPIO28_ADC2*%
%TO.N,unconnected-(U1-GPIO28_ADC2-Pad34)*%
X110980000Y-97700000D03*
%TO.P,U1,35,ADC_VREF*%
%TO.N,unconnected-(U1-ADC_VREF-Pad35)_1*%
X108440000Y-97700000D03*
%TO.P,U1,36,3V3*%
%TO.N,+3.3V*%
X105900000Y-97700000D03*
%TO.P,U1,37,3V3_EN*%
%TO.N,unconnected-(U1-3V3_EN-Pad37)*%
X103360000Y-97700000D03*
D13*
%TO.P,U1,38,GND*%
%TO.N,GND*%
X100820000Y-97700000D03*
D12*
%TO.P,U1,39,VSYS*%
%TO.N,Net-(D1-K)*%
X98280000Y-97700000D03*
%TO.P,U1,40,VBUS*%
%TO.N,unconnected-(U1-VBUS-Pad40)*%
X95740000Y-97700000D03*
%TD*%
D14*
%TO.P,Q1,1,C*%
%TO.N,GND*%
X118050000Y-126000000D03*
D15*
%TO.P,Q1,2,B*%
%TO.N,reset_inty_out*%
X119320000Y-123930000D03*
%TO.P,Q1,3,E*%
%TO.N,rst_inty'*%
X120590000Y-126000000D03*
%TD*%
D16*
%TO.P,SW1,*%
%TO.N,*%
X95530000Y-89180000D03*
X95530000Y-82170000D03*
D17*
%TO.P,SW1,1,1*%
%TO.N,GND*%
X93040000Y-87930000D03*
%TO.P,SW1,2,2*%
%TO.N,~{RESET_PICO}*%
X93040000Y-83430000D03*
%TD*%
D18*
%TO.P,CN1,1,GND*%
%TO.N,GND*%
X145737700Y-173734000D03*
%TO.P,CN1,3,~{MSYNC}*%
%TO.N,~{msync'}*%
X143197700Y-173734000D03*
%TO.P,CN1,5,DB7*%
%TO.N,d7'*%
X140657700Y-173734000D03*
%TO.P,CN1,7,DB8*%
%TO.N,d8'*%
X138117700Y-173734000D03*
%TO.P,CN1,9,DB6*%
%TO.N,d6'*%
X135577700Y-173734000D03*
%TO.P,CN1,11,DB9*%
%TO.N,d9'*%
X133037700Y-173734000D03*
%TO.P,CN1,13,DB5*%
%TO.N,d5'*%
X130497700Y-173734000D03*
%TO.P,CN1,15,DB10*%
%TO.N,d10'*%
X127957700Y-173734000D03*
%TO.P,CN1,17,DB4*%
%TO.N,d4'*%
X125417700Y-173734000D03*
%TO.P,CN1,19,DB11*%
%TO.N,d11'*%
X122877700Y-173734000D03*
%TO.P,CN1,21,DB3*%
%TO.N,d3'*%
X120337700Y-173734000D03*
%TO.P,CN1,23,DB12*%
%TO.N,d12'*%
X117797700Y-173734000D03*
%TO.P,CN1,25,DB13*%
%TO.N,d13'*%
X115257700Y-173734000D03*
%TO.P,CN1,27,DB2*%
%TO.N,d2'*%
X112717700Y-173734000D03*
%TO.P,CN1,29,DB14*%
%TO.N,d14'*%
X110177700Y-173734000D03*
%TO.P,CN1,31,DB1*%
%TO.N,d1'*%
X107637700Y-173734000D03*
%TO.P,CN1,33,DB0*%
%TO.N,d0'*%
X105097700Y-173734000D03*
%TO.P,CN1,35,DB15*%
%TO.N,d15'*%
X102557700Y-173734000D03*
%TO.P,CN1,37,BDIR*%
%TO.N,bdir'*%
X100017700Y-173734000D03*
%TO.P,CN1,39,BC2*%
%TO.N,bc2'*%
X97477700Y-173734000D03*
%TO.P,CN1,41,BC1*%
%TO.N,bc1'*%
X94937700Y-173734000D03*
%TO.P,CN1,43,VCC*%
%TO.N,+5V*%
X92397700Y-173734000D03*
%TD*%
D19*
%TO.N,+5V*%
X96991100Y-164914300D03*
%TO.N,GND*%
X126350000Y-122630000D03*
X128650000Y-88510000D03*
X146748700Y-165094200D03*
X130935000Y-88510000D03*
D20*
%TO.N,~{msync'}*%
X132194500Y-158503200D03*
%TO.N,d7'*%
X120378300Y-159534500D03*
%TO.N,d8'*%
X125799700Y-159385000D03*
%TO.N,d6'*%
X125482500Y-113335700D03*
X126716400Y-160108800D03*
%TO.N,d9'*%
X128761900Y-126245000D03*
X124225400Y-125924200D03*
X132904100Y-166097300D03*
%TO.N,d5'*%
X121238700Y-162883100D03*
%TO.N,d10'*%
X131587900Y-165714900D03*
%TO.N,d4'*%
X129448400Y-165101900D03*
X127705300Y-130001400D03*
%TO.N,d11'*%
X128687600Y-164106900D03*
X126182800Y-112455000D03*
%TO.N,d3'*%
X113420700Y-123648600D03*
X119303300Y-165801200D03*
%TO.N,d12'*%
X116583000Y-122537900D03*
X118153600Y-166178400D03*
%TO.N,d13'*%
X131715000Y-160417600D03*
%TO.N,d2'*%
X108284600Y-164533000D03*
%TO.N,d14'*%
X109054800Y-166214700D03*
X110580500Y-127077000D03*
%TO.N,d1'*%
X106794400Y-165818400D03*
%TO.N,d0'*%
X107744700Y-165366900D03*
X107127100Y-126385300D03*
%TO.N,d15'*%
X145192700Y-157814800D03*
%TO.N,bdir'*%
X123385900Y-156321000D03*
%TO.N,bc2'*%
X108944700Y-159243300D03*
%TO.N,bc1'*%
X112471200Y-156411100D03*
%TO.N,reset_inty_out*%
X130139700Y-118949000D03*
%TO.N,~{RESET_PICO}*%
X120527800Y-91128100D03*
%TO.N,MISO*%
X135300000Y-89700000D03*
D19*
%TO.N,+3.3V*%
X130935000Y-86390000D03*
%TD*%
D21*
%TO.N,+5V*%
X96991100Y-164914300D02*
X93043100Y-168862300D01*
X93043100Y-168862300D02*
X92397700Y-168862300D01*
X92397700Y-173734000D02*
X92397700Y-168862300D01*
%TO.N,GND*%
X115510000Y-117470000D02*
X115510000Y-123820000D01*
X121173338Y-127351000D02*
X123104000Y-125420338D01*
X118050000Y-125600000D02*
X119801000Y-127351000D01*
X100820000Y-97700000D02*
X100820000Y-90260000D01*
X124300000Y-122490000D02*
X124440000Y-122630000D01*
X123104000Y-125420338D02*
X123104000Y-123686000D01*
X145737700Y-166105200D02*
X145737700Y-173734000D01*
X123104000Y-123686000D02*
X124300000Y-122490000D01*
X119801000Y-127351000D02*
X121173338Y-127351000D01*
X116270000Y-123820000D02*
X118050000Y-125600000D01*
X98239000Y-87679000D02*
X93291000Y-87679000D01*
X124440000Y-122630000D02*
X126350000Y-122630000D01*
X93291000Y-87679000D02*
X93040000Y-87930000D01*
X115510000Y-123820000D02*
X116270000Y-123820000D01*
X100820000Y-90260000D02*
X98239000Y-87679000D01*
X146748700Y-165094200D02*
X145737700Y-166105200D01*
X113520000Y-115480000D02*
X115510000Y-117470000D01*
X128650000Y-88510000D02*
X130935000Y-88510000D01*
D22*
%TO.N,~{msync'}*%
X143197700Y-168987300D02*
X142678600Y-168987300D01*
X143197700Y-173734000D02*
X143197700Y-168987300D01*
X142678600Y-168987300D02*
X132194500Y-158503200D01*
%TO.N,d7'*%
X121610400Y-158302400D02*
X130488300Y-158302400D01*
X130488300Y-158302400D02*
X140657700Y-168471800D01*
X140657700Y-173734000D02*
X140657700Y-168987300D01*
X140657700Y-168471800D02*
X140657700Y-168987300D01*
X120378300Y-159534500D02*
X121610400Y-158302400D01*
%TO.N,d8'*%
X138117700Y-168987300D02*
X128515400Y-159385000D01*
X138117700Y-173734000D02*
X138117700Y-168987300D01*
X128515400Y-159385000D02*
X125799700Y-159385000D01*
%TO.N,d6'*%
X127801900Y-160108800D02*
X126716400Y-160108800D01*
X116060000Y-115480000D02*
X117236700Y-115480000D01*
X117236700Y-115112300D02*
X117236700Y-115480000D01*
X119013300Y-113335700D02*
X117236700Y-115112300D01*
X135577700Y-173734000D02*
X135577700Y-167884600D01*
X125482500Y-113335700D02*
X119013300Y-113335700D01*
X135577700Y-167884600D02*
X127801900Y-160108800D01*
%TO.N,d9'*%
X130373700Y-127856800D02*
X128761900Y-126245000D01*
X133037700Y-166230800D02*
X133037700Y-173734000D01*
X132904100Y-166097300D02*
X133037600Y-166230800D01*
X128441100Y-125924200D02*
X124225400Y-125924200D01*
X128761900Y-126245000D02*
X130373700Y-127856800D01*
X123680000Y-125378800D02*
X124225400Y-125924200D01*
X133037600Y-166230800D02*
X133037700Y-166230800D01*
X128761900Y-126245000D02*
X128441100Y-125924200D01*
X124225400Y-125924200D02*
X123680000Y-125378800D01*
%TO.N,d5'*%
X130497700Y-168064900D02*
X130497700Y-173734000D01*
X132246600Y-165460500D02*
X132246600Y-166316000D01*
X129669200Y-162883100D02*
X132246600Y-165460500D01*
X132246600Y-166316000D02*
X130497700Y-168064900D01*
X121238700Y-162883100D02*
X129669200Y-162883100D01*
%TO.N,d10'*%
X127957700Y-168987300D02*
X128315500Y-168987300D01*
X127957700Y-173734000D02*
X127957700Y-168987300D01*
X128315500Y-168987300D02*
X131587900Y-165714900D01*
%TO.N,d4'*%
X108440000Y-115480000D02*
X108440000Y-116656700D01*
X125417700Y-173734000D02*
X125417700Y-168987300D01*
X129448400Y-165101900D02*
X125563000Y-168987300D01*
X114047400Y-122264100D02*
X108440000Y-116656700D01*
X120094200Y-130001400D02*
X114047400Y-123954600D01*
X125563000Y-168987300D02*
X125417700Y-168987300D01*
X127705300Y-130001400D02*
X120094200Y-130001400D01*
X114047400Y-123954600D02*
X114047400Y-122264100D01*
%TO.N,d11'*%
X127466000Y-112455000D02*
X126182800Y-112455000D01*
X122877700Y-173734000D02*
X122877700Y-168987300D01*
X128687600Y-164106900D02*
X123807200Y-168987300D01*
X123807200Y-168987300D02*
X122877700Y-168987300D01*
X131300000Y-115480000D02*
X130123300Y-115480000D01*
X130123300Y-115480000D02*
X130123300Y-115112300D01*
X130123300Y-115112300D02*
X127466000Y-112455000D01*
%TO.N,d3'*%
X120337700Y-173734000D02*
X120337700Y-166835600D01*
X105900000Y-115480000D02*
X105900000Y-116656700D01*
X112891900Y-123648600D02*
X105900000Y-116656700D01*
X113420700Y-123648600D02*
X112891900Y-123648600D01*
X120337700Y-166835600D02*
X119303300Y-165801200D01*
%TO.N,d12'*%
X122464200Y-116656700D02*
X116583000Y-122537900D01*
X117797700Y-173734000D02*
X117797700Y-168987300D01*
X118153600Y-166178400D02*
X118153600Y-168631400D01*
X132663300Y-115847800D02*
X131854400Y-116656700D01*
X133840000Y-115480000D02*
X132663300Y-115480000D01*
X132663300Y-115480000D02*
X132663300Y-115847800D01*
X118153600Y-168631400D02*
X117797700Y-168987300D01*
X131854400Y-116656700D02*
X122464200Y-116656700D01*
%TO.N,d13'*%
X115257700Y-173734000D02*
X115257700Y-168987300D01*
X130051500Y-158754100D02*
X124481500Y-158754100D01*
X124481500Y-158754100D02*
X115257700Y-167977900D01*
X131715000Y-160417600D02*
X130051500Y-158754100D01*
X115257700Y-167977900D02*
X115257700Y-168987300D01*
%TO.N,d2'*%
X112717700Y-173734000D02*
X112717700Y-168966100D01*
X112717700Y-168966100D02*
X108284600Y-164533000D01*
%TO.N,d14'*%
X128243600Y-130680200D02*
X140283300Y-118640500D01*
X110580500Y-127077000D02*
X114183700Y-130680200D01*
X110177700Y-173734000D02*
X110177700Y-168987300D01*
X114183700Y-130680200D02*
X128243600Y-130680200D01*
X109054800Y-166214700D02*
X109054800Y-167864400D01*
X109054800Y-167864400D02*
X110177700Y-168987300D01*
X140283300Y-118640500D02*
X140283300Y-115480000D01*
X141460000Y-115480000D02*
X140283300Y-115480000D01*
%TO.N,d1'*%
X107637700Y-173734000D02*
X107637700Y-166661700D01*
X107637700Y-166661700D02*
X106794400Y-165818400D01*
%TO.N,d0'*%
X107556700Y-165178900D02*
X106429700Y-165178900D01*
X96916700Y-116174900D02*
X107127100Y-126385300D01*
X105097700Y-166510900D02*
X105097700Y-168987300D01*
X96916700Y-115480000D02*
X96916700Y-116174900D01*
X105097700Y-173734000D02*
X105097700Y-168987300D01*
X106429700Y-165178900D02*
X105097700Y-166510900D01*
X107744700Y-165366900D02*
X107556700Y-165178900D01*
X95740000Y-115480000D02*
X96916700Y-115480000D01*
%TO.N,d15'*%
X102557700Y-168387900D02*
X113130800Y-157814800D01*
X102557700Y-168987300D02*
X102557700Y-168387900D01*
X113130800Y-157814800D02*
X145192700Y-157814800D01*
X102557700Y-173734000D02*
X102557700Y-168987300D01*
%TO.N,bdir'*%
X100017700Y-173734000D02*
X100017700Y-168987300D01*
X113947900Y-156321000D02*
X101281600Y-168987300D01*
X101281600Y-168987300D02*
X100017700Y-168987300D01*
X123385900Y-156321000D02*
X113947900Y-156321000D01*
%TO.N,bc2'*%
X99200700Y-168987300D02*
X97477700Y-168987300D01*
X97477700Y-173734000D02*
X97477700Y-168987300D01*
X108944700Y-159243300D02*
X99200700Y-168987300D01*
%TO.N,bc1'*%
X94937700Y-168987300D02*
X107513900Y-156411100D01*
X107513900Y-156411100D02*
X112471200Y-156411100D01*
X94937700Y-173734000D02*
X94937700Y-168987300D01*
%TO.N,reset_inty_out*%
X119320000Y-124330000D02*
X124701000Y-118949000D01*
X124701000Y-118949000D02*
X130139700Y-118949000D01*
%TO.N,~{RESET_PICO}*%
X99490000Y-85270000D02*
X94880000Y-85270000D01*
X120527800Y-91128100D02*
X102538100Y-91128100D01*
X102538100Y-88318100D02*
X99490000Y-85270000D01*
X94880000Y-85270000D02*
X93040000Y-83430000D01*
X102538100Y-91128100D02*
X102538100Y-88318100D01*
%TO.N,MISO*%
X144000000Y-97700000D02*
X142823300Y-97700000D01*
X139417300Y-93926300D02*
X139417300Y-93817300D01*
X142823300Y-97332300D02*
X139417300Y-93926300D01*
X139417300Y-93817300D02*
X135300000Y-89700000D01*
X142823300Y-97700000D02*
X142823300Y-97332300D01*
D21*
%TO.N,+3.3V*%
X121685800Y-91984200D02*
X111615800Y-91984200D01*
X127260000Y-86410000D02*
X121685800Y-91984200D01*
X130915000Y-86410000D02*
X130935000Y-86390000D01*
X127260000Y-86410000D02*
X130915000Y-86410000D01*
X111615800Y-91984200D02*
X105900000Y-97700000D01*
%TD*%
M02*
